<svg width="12" height="11" viewBox="0 0 12 11" fill="none" xmlns="http://www.w3.org/2000/svg">
<path fill-rule="evenodd" clip-rule="evenodd" d="M6.60646 0.348794L11.9225 10.0446C12.0965 10.3625 11.9675 10.7566 11.6344 10.9226C11.5333 10.9732 11.4253 10.997 11.3183 10.9962L0.685244 11C0.307163 11 0 10.707 0 10.3463C0 10.2146 0.0410161 10.0914 0.11205 9.98836L5.39797 0.348794C5.57212 0.0309614 5.98526 -0.0921057 6.31832 0.0739146C6.44641 0.137853 6.54448 0.235235 6.60646 0.348794ZM6.68746 7.07143C6.68746 7.4321 6.38041 7.72513 6.00222 7.72513C5.62414 7.72513 5.31697 7.4321 5.31697 7.07143V5.10714C5.31697 4.74636 5.62414 4.45344 6.00222 4.45344C6.38041 4.45344 6.68746 4.74636 6.68746 5.10714V7.07143ZM6.55341 8.65713C6.55341 8.94819 6.3064 9.18481 6.00222 9.18481C5.69815 9.18481 5.4501 8.94819 5.4501 8.65713C5.4501 8.36695 5.69815 8.13033 6.00222 8.13033C6.3064 8.13033 6.55341 8.36695 6.55341 8.65713Z" fill="#E6E6E6"/>
</svg>
