<svg width="14" height="18" viewBox="0 0 14 18" fill="none" xmlns="http://www.w3.org/2000/svg">
<path d="M0.813459 0.142578H9.097L9.17551 0.147376H9.18009L9.19449 0.149775H9.20037L9.21346 0.152174H9.22066L9.23352 0.154355L9.24072 0.155663L9.25271 0.158062L9.261 0.159153L9.27169 0.16286L9.28107 0.163951L9.29066 0.166349L9.30004 0.168748L9.30964 0.171147L9.31901 0.173546L9.32861 0.177036L9.33929 0.179435L9.34758 0.182924L9.35718 0.185323L9.36656 0.188812L9.37615 0.19252L9.38444 0.196009L9.39512 0.199498L9.40341 0.203206L9.41301 0.206695L9.42129 0.210185L9.43198 0.214983L9.43896 0.218472L9.44965 0.22327L9.45684 0.226977L9.46753 0.231557L9.47473 0.236355L9.4841 0.241153L9.49239 0.245951L9.50199 0.25053L9.51027 0.255328L9.51856 0.260126L9.52685 0.266015L9.53514 0.270812L9.54473 0.276701L9.55193 0.281499L9.56131 0.288695L9.56719 0.293493L9.57788 0.300472L9.58268 0.30418L9.59467 0.312467L9.59925 0.315956L9.60994 0.325552L9.61365 0.329041L9.62542 0.338419L9.62913 0.340818L9.64091 0.352813L9.64331 0.353903L9.65639 0.366988L9.65748 0.368297L9.67188 0.381164L13.7614 4.47092L13.7745 4.4851L13.7756 4.48619L13.7887 4.49927L13.7898 4.50058L13.8018 4.51367L13.8042 4.51716L13.8135 4.52893L13.8172 4.53264L13.8266 4.54333L13.8303 4.54812L13.8386 4.5599L13.8421 4.5647L13.8493 4.57538L13.8539 4.58127L13.8611 4.59087L13.8646 4.59785L13.8718 4.60744L13.8766 4.61442L13.8825 4.62402L13.8859 4.63231L13.892 4.64059L13.8968 4.65019L13.9014 4.65848L13.9062 4.66676L13.911 4.67505L13.9145 4.68465L13.9193 4.69293L13.9241 4.70362L13.9276 4.7106L13.9311 4.72128L13.9359 4.72979L13.9396 4.73917L13.9431 4.74745L13.9466 4.75814L13.9503 4.76643L13.9538 4.77602L13.9573 4.78562L13.9597 4.795L13.9631 4.80328L13.9655 4.81397L13.9692 4.82357L13.9703 4.83294L13.9738 4.84254L13.9751 4.85192L13.9786 4.86151L13.9799 4.87111L13.9906 4.92912L13.993 4.9422V4.94809L13.9952 4.96249V4.96728L14 5.04558V5.06695L13.9989 5.08723L14 17.0436C14 17.4924 13.6356 17.857 13.1865 17.857H0.813459C0.364639 17.857 0 17.4924 0 17.0436V0.956037C0 0.507217 0.364639 0.142578 0.813459 0.142578ZM8.28376 5.04558V1.76928H1.6267V16.2301H12.3733V5.85904H9.097C8.64818 5.85904 8.28376 5.4944 8.28376 5.04558ZM10.5588 12.143C11.0076 12.143 11.3723 12.5076 11.3723 12.9564C11.3723 13.4052 11.0076 13.7699 10.5588 13.7699H3.43877C2.98995 13.7699 2.62553 13.4052 2.62553 12.9564C2.62553 12.5076 2.98995 12.143 3.43877 12.143H10.5588ZM10.5588 8.18884C11.0076 8.18884 11.3723 8.55326 11.3723 9.00208C11.3723 9.4509 11.0076 9.81554 10.5588 9.81554H3.43877C2.98995 9.81554 2.62553 9.4509 2.62553 9.00208C2.62553 8.55326 2.98995 8.18884 3.43877 8.18884H10.5588Z" fill="#808080"/>
</svg>
