<svg width="26" height="22" viewBox="0 0 26 22" fill="none" xmlns="http://www.w3.org/2000/svg">
<path fill-rule="evenodd" clip-rule="evenodd" d="M2.01639 11.3044C1.67334 10.4904 1.48425 9.59719 1.48425 8.65897C1.48425 4.89168 4.53752 1.83841 8.30481 1.83841C8.98281 1.83841 9.63651 1.93835 10.2551 2.12204C11.0132 0.976722 12.3116 0.219482 13.7892 0.219482C15.8745 0.219482 17.6042 1.72766 17.9553 3.71215C18.4145 3.43933 18.9494 3.27995 19.5229 3.27995C21.222 3.27995 22.5996 4.65667 22.5996 6.35573C22.5996 6.55382 22.5789 6.74651 22.5429 6.93379C24.0313 7.91253 25.0154 9.59539 25.0154 11.5096C25.0154 13.7255 23.6945 15.6308 21.8001 16.4925C21.8946 16.804 21.9468 17.1345 21.9468 17.4766C21.9468 19.3486 20.4278 20.8675 18.5559 20.8675C17.5222 20.8675 16.5984 20.402 15.9762 19.6727C14.9615 20.8414 13.4695 21.5843 11.7993 21.5843C9.50415 21.5843 7.53586 20.1859 6.69849 18.1951C6.26269 18.3428 5.79538 18.4265 5.30917 18.4265C2.9213 18.4265 0.984528 16.4907 0.984528 14.1028C0.984528 13.034 1.3744 12.058 2.01639 11.3044ZM5.30917 16.7581C6.58864 16.7581 7.49084 15.7731 8.23638 17.5478C8.84235 18.9857 10.2407 19.9149 11.7993 19.9149C12.9158 19.9149 13.9792 19.4287 14.7166 18.5787C15.5531 17.7197 16.2392 17.3956 17.2458 18.5904C17.5754 18.9767 18.0526 19.1982 18.5559 19.1982C19.5058 19.1982 20.2784 18.4256 20.2784 17.4766C20.2784 17.3082 20.2532 17.1399 20.2036 16.9751C19.9857 16.1638 20.255 15.4669 21.1095 14.9735C22.4682 14.3558 23.3461 12.9953 23.3461 11.5096C23.3461 10.2257 22.7032 9.03714 21.6263 8.32762L20.6971 7.71714L20.9033 6.62405C20.9213 6.52771 20.9303 6.44037 20.9303 6.35573C20.9303 5.57959 20.2991 4.9484 19.5229 4.9484C18.3641 4.9484 16.5813 7.15169 16.313 4.00298C16.0951 2.77753 15.0344 1.88793 13.7892 1.88793C12.9257 1.88793 12.1252 2.32012 11.6462 3.04315C11.1177 3.85351 10.5603 3.88953 9.79318 3.70855C9.31416 3.56628 8.80363 3.50686 8.30481 3.50686C5.46404 3.50686 3.1527 5.81819 3.1527 8.65897C3.1527 9.35228 3.28776 10.024 3.55338 10.6561L3.95226 11.6024L3.28686 12.3848C2.99783 12.7252 2.65298 13.2987 2.65298 14.1028C2.65298 15.5669 3.84421 16.7581 5.30917 16.7581ZM18.1426 14.5971C18.0463 14.7673 17.8833 14.9006 17.6798 14.9573C17.4754 15.0131 17.2674 14.9816 17.0973 14.8853C16.928 14.7889 16.7938 14.6268 16.738 14.4225C16.6813 14.2181 16.7128 14.0101 16.81 13.8399V13.8408C16.9073 13.6697 17.0684 13.5365 17.2728 13.4806C17.4763 13.4239 17.6843 13.4563 17.8545 13.5527C18.0247 13.649 18.1588 13.8111 18.2147 14.0155C18.2705 14.219 18.239 14.427 18.1426 14.5971ZM12.805 9.96815L12.1504 8.04309C12.3989 7.87742 12.6087 7.64601 12.7501 7.35878C12.9644 6.92479 12.9815 6.44487 12.8365 6.01898V6.01718C12.6916 5.59219 12.3845 5.22122 11.9505 5.00783C11.5166 4.79443 11.0366 4.77643 10.6107 4.92139L10.6098 4.92049C10.184 5.06545 9.81389 5.37249 9.59959 5.80739C9.38529 6.24228 9.36729 6.7231 9.51225 7.14899C9.65722 7.57398 9.96425 7.94405 10.3991 8.15834C10.7215 8.31771 11.069 8.36814 11.4004 8.32492L12.0343 10.1888C11.7335 10.3562 11.4796 10.6137 11.3167 10.946C11.1528 11.2773 11.1042 11.6357 11.1546 11.9761L9.28985 12.6099C9.12148 12.32 8.87026 12.076 8.54792 11.9175C8.11392 11.7032 7.63401 11.6861 7.20812 11.8311L7.20722 11.8302C6.78133 11.9752 6.41126 12.2822 6.19696 12.7171C5.98267 13.152 5.96556 13.6328 6.10963 14.0578C6.25459 14.4837 6.56163 14.8537 6.99652 15.068C7.43142 15.2823 7.91223 15.2994 8.33722 15.1554L8.33812 15.1536C8.76402 15.0095 9.13408 14.7025 9.34748 14.2685C9.48884 13.9813 9.54467 13.6742 9.52396 13.3762L11.4481 12.7216C11.6129 12.9593 11.838 13.1601 12.1162 13.2969C12.5511 13.5112 13.0319 13.5283 13.4569 13.3834L13.4578 13.3825C13.7423 13.2852 14.0026 13.116 14.2079 12.8837L15.7773 13.776C15.7016 14.065 15.698 14.3765 15.7836 14.6854C15.9114 15.1518 16.2185 15.5227 16.6083 15.7442L16.6101 15.7451C17.0009 15.9666 17.4763 16.0405 17.9427 15.9117C18.4091 15.783 18.7801 15.4768 19.0016 15.086H19.0034C19.2249 14.6953 19.2978 14.2199 19.1691 13.7525C19.0403 13.2852 18.7342 12.9143 18.3434 12.6919C17.9526 12.4695 17.4772 12.3965 17.0099 12.5253C16.6633 12.6207 16.3697 12.8143 16.1509 13.0664L14.5878 12.1786C14.6797 11.8356 14.6635 11.4808 14.5536 11.1576L14.5527 11.1549C14.4086 10.7299 14.1016 10.3598 13.6676 10.1455C13.3903 10.0087 13.0941 9.95285 12.805 9.96815ZM12.6448 10.9955C12.8302 10.9325 13.04 10.9406 13.23 11.0342C13.42 11.1279 13.5542 11.289 13.6181 11.4745C13.6802 11.66 13.6721 11.8698 13.5794 12.0598C13.4857 12.2498 13.3237 12.3839 13.1391 12.4479L13.1382 12.447C12.9527 12.5091 12.7429 12.5019 12.5529 12.4082C12.3638 12.3155 12.2297 12.1534 12.1666 11.9679C12.1036 11.7825 12.1108 11.5727 12.2045 11.3827C12.2981 11.1927 12.4593 11.0594 12.6448 10.9964V10.9955ZM7.43412 14.1802C7.24413 14.0866 7.10997 13.9254 7.04695 13.739C6.98392 13.5536 6.99202 13.3447 7.08476 13.1538C7.1784 12.9647 7.34048 12.8305 7.52596 12.7675V12.7666C7.71054 12.7036 7.92034 12.7117 8.11032 12.8053C8.30121 12.899 8.43537 13.0601 8.4984 13.2456C8.56142 13.4311 8.55332 13.6409 8.45968 13.8309C8.36604 14.0218 8.20486 14.1559 8.01938 14.219V14.2181C7.8339 14.2811 7.6241 14.273 7.43412 14.1802ZM10.9277 5.85691C11.1132 5.79388 11.323 5.80199 11.5129 5.89563C11.7029 5.99017 11.838 6.15134 11.901 6.33682C11.9641 6.52141 11.9559 6.7312 11.8623 6.92209C11.7687 7.11207 11.6066 7.24623 11.422 7.30926L11.4211 7.30836C11.2356 7.37139 11.0258 7.36419 10.8367 7.27054C10.6468 7.1769 10.5126 7.01483 10.4496 6.82935C10.3865 6.64476 10.3946 6.43497 10.4874 6.24498C10.581 6.055 10.7431 5.92084 10.9286 5.85781L10.9277 5.85691Z" fill="#FFCC00"/>
</svg>
