<svg width="24" height="25" viewBox="0 0 24 25" fill="none" xmlns="http://www.w3.org/2000/svg">
<path fill-rule="evenodd" clip-rule="evenodd" d="M10.1573 0.795898C15.7515 0.795898 20.2877 5.33123 20.2877 10.9263C20.2877 13.3178 19.4584 15.5157 18.0727 17.2481L18.5968 17.7721C18.9524 17.5776 19.4089 17.6271 19.7087 17.927L23.6993 21.9176C24.064 22.2822 24.064 22.8792 23.6993 23.2439L22.527 24.4153C22.1632 24.7809 21.5654 24.7809 21.2016 24.4153L17.2101 20.4256C16.9148 20.1285 16.8635 19.6828 17.0472 19.3289L16.524 18.8058C14.7844 20.2131 12.5694 21.0568 10.1573 21.0568C4.56216 21.0568 0.026825 16.5215 0.026825 10.9263C0.026825 5.33123 4.56216 0.795898 10.1573 0.795898ZM10.1573 2.5922C14.7601 2.5922 18.4914 6.32348 18.4914 10.9263C18.4914 15.5292 14.7601 19.2605 10.1573 19.2605C5.5544 19.2605 1.82313 15.5292 1.82313 10.9263C1.82313 6.32348 5.5544 2.5922 10.1573 2.5922ZM6.09825 16.9662L7.05087 15.9074C7.24896 15.9875 7.46506 16.0316 7.69196 16.0316C8.63468 16.0316 9.39913 15.2672 9.39913 14.3245C9.39913 13.3817 8.63468 12.6173 7.69196 12.6173C6.74924 12.6173 5.9848 13.3817 5.9848 14.3245C5.9848 14.5595 6.03162 14.7828 6.11806 14.9863L5.1015 16.0235L6.09825 16.9662ZM13.0106 7.45348C13.4527 7.45348 13.8111 7.81184 13.8111 8.25394C13.8111 8.69694 13.4527 9.0553 13.0106 9.0553C12.5685 9.0553 12.2093 8.69694 12.2093 8.25394C12.2093 7.81184 12.5685 7.45348 13.0106 7.45348ZM3.18724 12.8091L5.89295 9.97371L9.85383 10.5365L11.4611 8.97156C11.3593 8.75367 11.3026 8.51056 11.3026 8.25394C11.3026 7.31122 12.0679 6.54678 13.0106 6.54678C13.9534 6.54678 14.7178 7.31122 14.7178 8.25394C14.7178 9.19757 13.9534 9.96201 13.0106 9.96201C12.7909 9.96201 12.5821 9.92059 12.3894 9.84496L10.3734 12.0302L6.49893 11.4027L3.72838 14.2164L3.18724 12.8091ZM8.62748 5.96422C8.84628 5.96422 9.05517 6.00563 9.24696 6.08037L11.5412 3.58805L13.0458 4.12919L10.2041 7.01589C10.2878 7.21758 10.3346 7.43908 10.3346 7.67138C10.3346 8.61501 9.5702 9.37855 8.62748 9.37855C7.68386 9.37855 6.92032 8.61501 6.92032 7.67138C6.92032 6.72866 7.68386 5.96422 8.62748 5.96422ZM8.62748 6.87092C9.06958 6.87092 9.42794 7.22928 9.42794 7.67138C9.42794 8.11348 9.06958 8.47184 8.62748 8.47184C8.18538 8.47184 7.82702 8.11348 7.82702 7.67138C7.82702 7.22928 8.18538 6.87092 8.62748 6.87092ZM17.663 10.2528C17.537 9.7225 17.41 9.19306 17.284 8.66363L12.5938 13.3313C12.4551 13.2944 12.3092 13.2746 12.1589 13.2746C11.2161 13.2746 10.4517 14.039 10.4517 14.9827C10.4517 15.9254 11.2161 16.6898 12.1589 16.6898C13.1016 16.6898 13.866 15.9254 13.866 14.9827C13.866 14.7134 13.8048 14.4595 13.6941 14.2335L17.663 10.2528ZM12.1589 14.1813C12.601 14.1813 12.9602 14.5397 12.9602 14.9827C12.9602 15.4248 12.601 15.7831 12.1589 15.7831C11.7168 15.7831 11.3584 15.4248 11.3584 14.9827C11.3584 14.5397 11.7168 14.1813 12.1589 14.1813ZM7.69196 13.524C8.13406 13.524 8.49242 13.8824 8.49242 14.3245C8.49242 14.7666 8.13406 15.1249 7.69196 15.1249C7.24986 15.1249 6.8915 14.7666 6.8915 14.3245C6.8915 13.8824 7.24986 13.524 7.69196 13.524Z" fill="#FFCC00"/>
</svg>
