<svg width="22" height="25" viewBox="0 0 22 25" fill="none" xmlns="http://www.w3.org/2000/svg">
<path fill-rule="evenodd" clip-rule="evenodd" d="M0.228027 11.067C0.228027 13.517 1.02939 15.777 2.3872 17.5958L2.47724 17.7209C2.70234 18.0307 3.0742 18.2315 3.48479 18.2315C4.1754 18.2315 4.73725 17.666 4.73725 16.9691C4.73725 16.6783 4.64181 16.4072 4.47613 16.193L4.38069 16.0624C3.34432 14.6695 2.73295 12.9407 2.73295 11.067C2.73295 6.45689 6.43541 2.6995 10.9996 2.6995C15.5637 2.6995 19.2671 6.45689 19.2671 11.067C19.2671 12.9407 18.6557 14.6695 17.6184 16.0624L17.5239 16.193C17.3582 16.4072 17.2628 16.6783 17.2628 16.9691C17.2628 17.666 17.8237 18.2315 18.5152 18.2315C18.9258 18.2315 19.2968 18.0307 19.5219 17.7209L19.6128 17.5958C20.9706 15.777 21.772 13.517 21.772 11.067C21.772 5.05946 16.9476 0.19458 10.9996 0.19458C5.05239 0.19458 0.228027 5.05946 0.228027 11.067ZM4.23572 11.067C4.23572 12.3194 4.57158 13.4917 5.15234 14.5038L5.22797 14.619C5.43326 15.0305 5.85375 15.3106 6.33997 15.3106C7.03148 15.3106 7.59243 14.7451 7.59243 14.0428C7.59243 13.8024 7.5276 13.5773 7.41235 13.3873L7.27729 13.1559C6.93604 12.5346 6.74065 11.8233 6.74065 11.067C6.74065 8.69169 8.6495 6.7081 10.9996 6.7081C13.3496 6.7081 15.2585 8.69169 15.2585 11.067C15.2585 11.8233 15.0631 12.5346 14.7227 13.1559L14.5868 13.3873C14.4724 13.5773 14.4067 13.8024 14.4067 14.0428C14.4067 14.7451 14.9676 15.3106 15.6591 15.3106C16.1454 15.3106 16.5668 15.0305 16.772 14.619L16.8468 14.5038C17.4275 13.4917 17.7634 12.3194 17.7634 11.067C17.7634 7.29426 14.7371 4.20228 10.9996 4.20228C7.26198 4.20228 4.23572 7.29426 4.23572 11.067ZM8.24432 10.967C8.24432 12.0394 8.8557 12.9659 9.7471 13.4215V20.7364C9.7471 21.2874 9.29689 21.7385 8.74495 21.7385H5.98971C5.2982 21.7385 4.73725 22.3004 4.73725 22.991C4.73725 23.6825 5.2982 24.2444 5.98971 24.2444H16.0103C16.7009 24.2444 17.2628 23.6825 17.2628 22.991C17.2628 22.3004 16.7009 21.7385 16.0103 21.7385H13.2542C12.7031 21.7385 12.252 21.2874 12.252 20.7364V13.4215C13.1443 12.9659 13.7557 12.0394 13.7557 10.967C13.7557 9.44353 12.523 8.21087 10.9996 8.21087C9.47697 8.21087 8.24432 9.44353 8.24432 10.967Z" fill="#FFCC00"/>
</svg>
