<svg width="24" height="25" viewBox="0 0 24 25" fill="none" xmlns="http://www.w3.org/2000/svg">
<path fill-rule="evenodd" clip-rule="evenodd" d="M11.9995 0.671875C5.38783 0.671875 0.026825 6.03288 0.026825 12.6454C0.026825 14.6858 0.538254 16.6054 1.43776 18.2865C2.57227 20.406 4.32625 22.1429 6.45751 23.2585C8.11515 24.1256 9.9988 24.6181 11.9995 24.6181C14.0668 24.6181 16.0126 24.0941 17.709 23.1721C19.8204 22.024 21.5447 20.2584 22.6477 18.1199C23.4931 16.4785 23.9731 14.6182 23.9731 12.6454C23.9731 6.03288 18.6121 0.671875 11.9995 0.671875ZM11.9995 2.68248C6.49803 2.68248 2.03653 7.14218 2.03653 12.6454C2.03653 14.3427 2.46242 15.9409 3.21065 17.3392C4.15518 19.1031 5.61473 20.5483 7.38763 21.4766C8.76794 22.1978 10.3355 22.6084 11.9995 22.6084C13.7202 22.6084 15.3391 22.1726 16.75 21.4055C18.5076 20.4501 19.9429 18.9807 20.8595 17.2006C21.5636 15.8347 21.9634 14.2869 21.9634 12.6454C21.9634 7.14218 17.5028 2.68248 11.9995 2.68248ZM12.4722 7.36998H11.5484V5.08926H12.4722V7.36998ZM15.7407 9.4175L15.0861 8.7638L16.7005 7.15028L17.3533 7.80397L15.7407 9.4175ZM19.2 12.2529H16.9184V11.3273H19.2V12.2529ZM7.1049 11.3273V12.2529H4.82328V11.3273H7.1049ZM8.90301 8.7629L8.24931 9.4166L6.63579 7.80397L7.28948 7.14938L8.90301 8.7629ZM9.24426 6.59563L9.74758 6.38494L12.9593 11.4497C13.3429 11.7351 13.5635 12.1826 13.5644 12.6544C13.5644 12.8462 13.5266 13.0425 13.4482 13.2307C13.2078 13.8052 12.6514 14.1536 12.0634 14.1536C11.8707 14.1536 11.6744 14.1167 11.4872 14.0375C10.91 13.7971 10.5624 13.2406 10.5633 12.6535C10.5633 12.577 10.5688 12.5023 10.5805 12.4275L9.24426 6.59563ZM16.1531 15.4907H17.781V18.2811H16.1531V15.4907ZM13.6697 15.4907H15.2968V18.2811H13.6697V15.4907ZM11.1855 15.4907H12.8135V18.2811H11.1855V15.4907ZM8.70222 15.4907H10.3301V18.2811H8.70222V15.4907ZM6.218 15.4907H7.84683V18.2811H6.218V15.4907Z" fill="#FFCC00"/>
</svg>
