<svg width="15" height="15" viewBox="0 0 15 15" fill="none" xmlns="http://www.w3.org/2000/svg">
<path d="M14.2238 10.347C13.3451 12.0885 11.8313 13.3163 10.1056 13.8895C8.47446 14.4324 6.65046 14.3912 4.99381 13.6543L1.08532 14.9572C0.652689 15.1002 0.184833 14.8651 0.0419108 14.4324C-0.0163395 14.2578 -0.0115497 14.0761 0.0419108 13.9137L1.34582 10.0028C0.610199 8.34984 0.561683 6.53187 1.09737 4.9055C1.66581 3.17977 2.89355 1.66001 4.65682 0.771577L4.70889 0.745002C5.60211 0.300167 6.54493 0.0626848 7.4757 0.0106148C8.86583 -0.0658677 10.2414 0.273591 11.423 0.943702C12.6082 1.61628 13.6093 2.62833 14.248 3.89469C14.6697 4.73105 14.9364 5.68361 14.9922 6.71975L14.9932 6.76209C14.9957 7.37534 14.9617 7.94626 14.8516 8.53154C14.74 9.12177 14.5486 9.7035 14.2371 10.3203L14.2238 10.347ZM9.58693 12.3212C10.9091 11.8826 12.0702 10.9396 12.7451 9.60291L12.7586 9.57618C12.996 9.10354 13.1427 8.66488 13.2252 8.22623C13.31 7.77892 13.3353 7.29901 13.3353 6.76209C13.2893 5.98166 13.0858 5.26782 12.7694 4.63881C12.2822 3.67297 11.5151 2.8998 10.6061 2.38343C9.69354 1.86597 8.63314 1.60547 7.56547 1.66356C6.84685 1.70235 6.11725 1.88776 5.4252 2.2368L5.40094 2.25024C4.05207 2.93008 3.10925 4.0971 2.67291 5.42419C2.24152 6.73551 2.30085 8.20676 2.94315 9.51685L2.98317 9.59689C3.06799 9.7823 3.08746 9.99923 3.01824 10.2089L2.13243 12.8666L4.78043 11.9844C4.96955 11.9189 5.18154 11.9213 5.37668 12.0049L5.44699 12.0364C6.77531 12.6993 8.26479 12.7611 9.58693 12.3212Z" fill="#808080"/>
</svg>
