<svg width="18" height="26" viewBox="0 0 18 26" fill="none" xmlns="http://www.w3.org/2000/svg">
<path fill-rule="evenodd" clip-rule="evenodd" d="M5.83191 4.1625H9.99268C10.3177 4.1625 10.5833 4.428 10.5833 4.7538C10.5833 5.0787 10.3177 5.3442 9.99268 5.3442H5.83191C5.50687 5.3442 5.24125 5.0787 5.24125 4.7538C5.24125 4.428 5.50687 4.1625 5.83191 4.1625ZM12.1672 4.1625C12.494 4.1625 12.7587 4.4271 12.7587 4.7538C12.7587 5.0796 12.494 5.3442 12.1672 5.3442C11.8412 5.3442 11.5765 5.0796 11.5765 4.7538C11.5765 4.4271 11.8412 4.1625 12.1672 4.1625ZM4.59206 0.757801H13.407C13.8257 0.757801 14.1651 0.4185 14.1651 0H15.5482L17.4777 1.9287V3.9564C17.059 3.9564 16.7205 4.2957 16.7205 4.7142V20.9061C16.7205 21.3246 17.059 21.6648 17.4777 21.6648V23.6916L15.5482 25.6212H14.1651C14.1651 25.2027 13.8257 24.8625 13.407 24.8625H4.59206C4.17337 24.8625 3.83392 25.2027 3.83392 25.6212H2.4518L0.521332 23.6916V21.6648C0.94002 21.6648 1.27947 21.3246 1.27947 20.9061V4.7142C1.27947 4.2957 0.94002 3.9564 0.521332 3.9564V1.9287L2.4518 0H3.83392C3.83392 0.4185 4.17337 0.757801 4.59206 0.757801ZM3.95727 3.0879H14.0427C14.365 3.0879 14.628 3.3516 14.628 3.6729V21.9483C14.628 22.2687 14.3632 22.5333 14.0427 22.5333H3.95727C3.63583 22.5333 3.37201 22.2696 3.37201 21.9483V3.6729C3.37201 3.3507 3.63493 3.0879 3.95727 3.0879Z" fill="#FFCC00"/>
</svg>
