<svg width="26" height="25" viewBox="0 0 26 25" fill="none" xmlns="http://www.w3.org/2000/svg">
<path fill-rule="evenodd" clip-rule="evenodd" d="M7.79338 24.0804V11.1911H11.7597V11.1938C12.1459 11.1911 12.4332 11.0443 12.6204 10.8111C12.7303 10.6734 12.8122 10.5041 12.8636 10.3114H3.02664C2.73941 10.3114 2.43778 10.4618 2.20457 10.6941C1.98307 10.9156 1.83451 11.2055 1.83451 11.5035V17.0923C1.83451 17.2661 1.90654 17.4255 2.02179 17.5407C2.13704 17.656 2.29641 17.728 2.47109 17.728H2.74842V12.8568H3.85952V24.0804H2.74842V18.8391H2.47109C1.99028 18.8391 1.55268 18.6428 1.23664 18.3268C0.920598 18.0099 0.723409 17.5723 0.723409 17.0923V11.5035C0.723409 10.8931 1.00253 10.3249 1.41942 9.90893C1.84981 9.47763 2.43958 9.20121 3.02664 9.20121H14.0413V9.76846C14.0413 10.4276 13.8549 11.0434 13.483 11.5053C13.0941 11.9916 12.5178 12.2968 11.7624 12.2995L11.7597 12.3022H8.90448V24.0804H7.79338ZM5.27135 24.0579V16.9537H6.38155V24.0579H5.27135ZM5.84941 3.45573C6.56883 3.45573 7.22162 3.74836 7.69614 4.22107L7.69794 4.22378C8.17155 4.69829 8.46418 5.35108 8.46418 6.0705C8.46418 6.78993 8.17155 7.44272 7.69794 7.91723L7.69614 7.91993C7.22162 8.39265 6.56883 8.68528 5.84941 8.68528C5.12908 8.68528 4.47629 8.39265 4.00178 7.91993L3.99998 7.91723C3.52637 7.44272 3.23464 6.78993 3.23464 6.0705C3.23464 5.35108 3.52637 4.69829 3.99998 4.22378L4.00178 4.22107C4.47629 3.74836 5.12908 3.45573 5.84941 3.45573ZM6.91278 5.00443C6.64176 4.7334 6.26629 4.56593 5.84941 4.56593C5.43252 4.56593 5.05615 4.7334 4.78513 5.00443L4.78333 5.00713C4.51231 5.27725 4.34483 5.65362 4.34483 6.0705C4.34483 6.48739 4.51231 6.86376 4.78333 7.13388L4.78513 7.13658C5.05615 7.4067 5.43252 7.57508 5.84941 7.57508C6.26629 7.57508 6.64176 7.4067 6.91278 7.13658L6.91459 7.13388C7.18561 6.86376 7.35308 6.48739 7.35308 6.0705C7.35308 5.65362 7.18561 5.27725 6.91459 5.00713L6.91278 5.00443ZM0.688293 8.0604V0.424072H25.3107V17.9189H10.0381V16.8078H24.2005V1.53517H1.79939V8.0604H0.688293ZM16.5462 7.88482L20.3567 6.03989L16.5462 4.26069L12.7348 6.03989L16.5462 7.88482ZM21.0905 6.91508L17.1018 8.84645V13.5168L21.0905 11.5855V6.91508ZM16.7803 3.14869L21.8343 5.50775C22.0486 5.58519 22.2016 5.79048 22.2016 6.03089V11.9321C22.1998 12.1383 22.0846 12.3355 21.8865 12.431L16.8244 14.8819C16.7425 14.9296 16.647 14.9566 16.5462 14.9566C16.4445 14.9566 16.349 14.9296 16.2671 14.8819L12.8663 13.235C13.2912 13.0946 13.6793 12.8695 14.0143 12.5597L15.9907 13.5168V8.84645L12.001 6.91508V8.09011H10.8908V6.03089C10.8908 5.79048 11.0438 5.58519 11.2581 5.50775L16.3112 3.14869C16.4544 3.08206 16.6254 3.07666 16.7803 3.14869Z" fill="#FFCC00"/>
</svg>
