<svg width="22" height="25" viewBox="0 0 22 25" fill="none" xmlns="http://www.w3.org/2000/svg">
<path fill-rule="evenodd" clip-rule="evenodd" d="M6.18149 17.6928C4.45362 18.1638 2.67892 18.8346 1.21937 20.0924C-0.306816 21.4088 0.148789 23.2213 3.33982 23.9543C5.80062 24.5197 8.37218 24.707 10.9996 24.7061C13.6278 24.707 16.1985 24.5197 18.6602 23.9543C21.8512 23.2213 22.3068 21.4088 20.7806 20.0924C19.3211 18.8346 17.5464 18.1638 15.8176 17.6928C15.7906 18.0755 15.7627 18.4582 15.7357 18.8409C15.0217 19.1047 14.3076 19.3694 13.5945 19.6332C13.5738 20.1834 13.5531 20.7326 13.5324 21.2828C13.0354 21.7312 12.5374 22.1796 12.0404 22.628L11.8441 22.4857L12.6473 21.0324C12.668 20.4193 12.6887 19.807 12.7094 19.1956C13.3262 18.8508 13.943 18.5068 14.5606 18.162L14.5075 18.0701L12.3177 18.6941C11.8783 19.7449 11.439 20.7956 10.9996 21.8464C10.5602 20.7956 10.1217 19.7449 9.68226 18.6941L7.49158 18.0701L7.43936 18.162C8.05613 18.5068 8.67291 18.8508 9.29059 19.1956C9.3113 19.807 9.33201 20.4193 9.35272 21.0324L10.1559 22.4857L9.95959 22.628C9.46256 22.1796 8.96464 21.7312 8.46672 21.2828C8.44691 20.7326 8.4262 20.1834 8.40549 19.6332C7.69147 19.3694 6.97745 19.1047 6.26433 18.8409C6.23642 18.4582 6.20851 18.0755 6.18149 17.6928ZM6.05184 6.15057C6.49303 4.05533 7.7554 2.15188 11.0302 2.12577C13.7557 2.10416 15.6114 3.90497 15.8419 5.94168C14.774 4.16698 13.1821 3.35482 11.0302 3.3017C8.59187 3.24227 7.20435 4.48483 6.05184 6.15057ZM5.73579 12.439C3.85125 12.529 3.44157 8.96704 4.35818 7.49127C4.75435 3.20265 7.35382 0.561768 10.996 0.561768C15.1864 0.561768 17.3141 3.60333 17.5914 7.40844C18.6935 8.6546 17.9228 12.0329 16.3606 12.71C15.4548 15.0006 13.9205 16.254 11.999 16.5827C11.7316 16.9626 11.0527 16.9761 10.7249 16.5818C10.5647 16.39 10.5548 16.0316 10.6619 15.8092C10.9014 15.3527 11.6298 15.2429 11.9036 15.7885C13.0615 15.5355 14.1645 15.0601 14.7011 13.9202C15.1927 12.8739 15.0397 11.6574 14.9307 10.477C12.6158 9.67475 10.8294 8.28003 9.21135 6.69802C7.64735 7.42645 6.77126 8.77075 6.82078 10.9461C6.89101 12.4849 7.33581 13.8985 8.07324 15.2149C9.48598 17.258 11.0869 18.1178 13.3019 16.8951C11.1184 19.355 8.46492 17.2093 7.23857 15.4653C6.61099 14.5198 6.08425 13.5231 5.73579 12.439Z" fill="#FFCC00"/>
</svg>
