<svg width="24" height="25" viewBox="0 0 24 25" fill="none" xmlns="http://www.w3.org/2000/svg">
<path d="M6.19549 9.95854L2.33906 15.0269H21.6608L17.8044 9.95854H6.19549ZM0.155583 21.6917C-0.0776219 21.3396 0.0187213 20.8642 0.37168 20.631C0.723737 20.3978 1.19825 20.4942 1.43145 20.8471L2.99636 23.1981C3.22956 23.5501 3.13322 24.0255 2.78116 24.2588C2.4282 24.492 1.95369 24.3956 1.72048 24.0427L0.155583 21.6917ZM23.0709 19.8927L23.8443 21.0551C24.0775 21.4072 23.9803 21.8817 23.6282 22.1149C23.2762 22.3481 22.8007 22.2518 22.5675 21.8997L21.2322 19.8927H19.8879L22.0876 23.1981C22.3208 23.5501 22.2245 24.0255 21.8724 24.2588C21.5195 24.492 21.045 24.3956 20.8117 24.0427L18.0493 19.8927H16.7059L18.9056 23.1981C19.1388 23.5501 19.0425 24.0255 18.6904 24.2588C18.3383 24.492 17.8629 24.3956 17.6297 24.0427L14.8682 19.8927H13.5248L15.7236 23.1981C15.9568 23.5501 15.8604 24.0255 15.5084 24.2588C15.1563 24.492 14.6809 24.3956 14.4477 24.0427L11.6862 19.8927H10.3428L12.5424 23.1981C12.7756 23.5501 12.6793 24.0255 12.3263 24.2588C11.9743 24.492 11.4989 24.3956 11.2657 24.0427L8.50413 19.8927H7.16072L9.36041 23.1981C9.59361 23.5501 9.49727 24.0255 9.14431 24.2588C8.79226 24.492 8.31774 24.3956 8.08454 24.0427L5.3221 19.8927H3.9787L6.17838 23.1981C6.41159 23.5501 6.31524 24.0255 5.96319 24.2588C5.61023 24.492 5.13572 24.3956 4.90251 24.0427L2.14007 19.8927H0.793969C0.369879 19.8927 0.026825 19.5496 0.026825 19.1264C0.026825 18.7024 0.369879 18.3593 0.793969 18.3593H23.2059C23.6291 18.3593 23.9731 18.7024 23.9731 19.1264C23.9731 19.5496 23.6291 19.8927 23.2059 19.8927H23.0709ZM9.82142 5.47633H14.3937L12.1075 2.47168L9.82142 5.47633ZM15.9397 7.01062H8.27632V7.00882C8.11425 7.00882 7.95128 6.95749 7.81172 6.85215C7.47677 6.59553 7.41194 6.11472 7.66855 5.77887L11.4899 0.757314C11.5322 0.698788 11.5835 0.645664 11.6438 0.599744C11.9797 0.344029 12.4596 0.407958 12.7162 0.743808L16.5159 5.73835C16.6348 5.87341 16.7059 6.04989 16.7059 6.24347C16.7059 6.66666 16.3629 7.01062 15.9397 7.01062ZM0.185296 15.3294L5.17623 8.77001C5.3131 8.56201 5.5499 8.42425 5.81732 8.42425H18.1817V8.42605C18.4122 8.42605 18.64 8.5296 18.7903 8.72679L23.7831 15.2889C23.901 15.424 23.9731 15.6005 23.9731 15.7941C23.9731 16.2172 23.6291 16.5612 23.2059 16.5612H0.793969V16.5585C0.631896 16.5594 0.468023 16.5081 0.329361 16.4018C-0.00648999 16.1461 -0.0713191 15.6653 0.185296 15.3294Z" fill="#FFCC00"/>
</svg>
