<svg width="22" height="22" viewBox="0 0 22 22" fill="none" xmlns="http://www.w3.org/2000/svg">
<path fill-rule="evenodd" clip-rule="evenodd" d="M17.1669 10.153C16.9946 10.153 16.9882 10.0557 16.9882 9.81018C16.9882 9.50945 17.028 9.34336 17.028 9.34336C17.5435 9.34336 18.3237 8.48207 18.575 7.68865C18.7162 7.24156 19.5145 7.16068 19.5145 5.97654C19.5145 4.93854 19.056 5.22589 19.056 5.14859C19.056 5.0713 19.056 4.01992 19.056 3.40225C19.056 2.25742 18.0329 0 14.8079 0C11.5825 0 10.5608 2.25742 10.5608 3.40225C10.5608 3.81652 10.5608 4.41917 10.5608 4.79913C12.024 5.76836 12.7093 7.30869 12.7093 8.53469V9.57247C12.9712 9.87992 13.1684 10.3603 13.1684 11.108C13.1684 12.4609 12.4565 13.0844 12.1151 13.3842C12.1104 13.3882 12.1057 13.3921 12.1018 13.3959C11.9776 13.7157 11.7887 14.068 11.5482 14.4013C12.8905 14.9245 14.0011 15.9119 14.7273 16.923H14.8079H22C22 16.923 22 15.2721 22 14.0623C22 13.117 19.9698 10.153 17.1669 10.153ZM9.55131 15.23C9.37909 15.23 9.37288 15.1327 9.37288 14.8872C9.37288 14.5864 9.41235 14.4203 9.41235 14.4203C9.92866 14.4203 10.7088 13.56 10.9593 12.7656C11.1007 12.3188 11.8993 12.2377 11.8993 11.0535C11.8993 10.0157 11.4401 10.3032 11.4401 10.2256C11.4401 10.1483 11.4401 9.0969 11.4401 8.47923C11.4401 7.3344 10.4176 5.07698 7.19185 5.07698C3.96729 5.07698 2.94521 7.3344 2.94521 8.47923C2.94521 9.0969 2.94521 10.1483 2.94521 10.2256C2.94521 10.3032 2.48579 10.0157 2.48579 11.0535C2.48579 12.2377 3.28376 12.3188 3.42512 12.7656C3.67614 13.56 4.45624 14.4203 4.97181 14.4203C4.97181 14.4203 5.01202 14.5864 5.01202 14.8872C5.01202 15.1327 5.00537 15.23 4.83284 15.23C2.02996 15.23 0 18.194 0 19.1393C0 20.3481 0 22 0 22H7.19185H14.3849C14.3849 22 14.3849 20.3481 14.3849 19.1393C14.3849 18.194 12.3545 15.23 9.55131 15.23Z" fill="#E6E6E6"/>
</svg>
