<svg width="26" height="24" viewBox="0 0 26 24" fill="none" xmlns="http://www.w3.org/2000/svg">
<path fill-rule="evenodd" clip-rule="evenodd" d="M21.8567 4.51212C21.8567 2.46557 20.1603 0.733398 18.0671 0.733398C15.9738 0.733398 14.2775 2.35267 14.2775 4.51212C14.2775 6.67116 18.0671 11.932 18.0671 11.932C18.0671 11.932 21.8567 6.55806 21.8567 4.51212ZM22.932 4.59933C22.9216 4.91999 22.8482 5.28767 22.7303 5.68552L24.1402 6.53614V21.6943L19.8145 19.2656V11.2813C19.4296 11.8695 19.1129 12.3251 18.9529 12.5529L18.0765 13.7951L17.1878 12.5613C16.6342 11.7938 14.2561 8.4047 13.4597 5.90936L6.82162 2.50497L0.866669 5.99637V23.2667L6.82162 19.4902L13.4992 22.8636L19.3095 20.0262L25.1333 23.2667V5.99637L22.932 4.59933ZM13.2228 21.7168L6.82162 18.4448V3.7025L13.2228 7.03119V21.7168Z" fill="#FFCC00"/>
</svg>
