<svg width="26" height="26" viewBox="0 0 26 26" fill="none" xmlns="http://www.w3.org/2000/svg">
<path fill-rule="evenodd" clip-rule="evenodd" d="M25.6628 22.7499L14.4401 1.72185C14.1376 1.1483 13.6631 0.86377 13.0256 0.86377C12.3863 0.86377 11.9127 1.1483 11.6102 1.72185L0.339816 22.7499C0.0336785 23.2883 0.0426825 23.8196 0.361425 24.3409C0.68467 24.8631 1.14658 25.126 1.75435 25.126H24.2482C24.8524 25.126 25.3179 24.8631 25.6376 24.3409C25.9563 23.8196 25.9653 23.2883 25.6628 22.7499ZM1.75435 23.5089L13.0256 2.48089L24.2482 23.5089H1.75435ZM11.4076 10.6205V15.4728C11.4076 15.9086 11.5669 16.2886 11.8866 16.6073C12.2098 16.9306 12.5853 17.0908 13.0256 17.0908C13.465 17.0908 13.8405 16.9306 14.1637 16.6073C14.4834 16.2886 14.6427 15.9086 14.6427 15.4728V10.6205C14.6427 10.146 14.4834 9.75796 14.1637 9.45632C13.8405 9.15379 13.465 9.00252 13.0256 9.00252C12.5853 9.00252 12.2098 9.15379 11.8866 9.45632C11.5669 9.75796 11.4076 10.146 11.4076 10.6205ZM11.8866 19.1348C11.5669 19.4589 11.4076 19.8335 11.4076 20.2738C11.4076 20.7141 11.5669 21.0886 11.8866 21.4128C12.2098 21.7315 12.5853 21.8909 13.0256 21.8909C13.465 21.8909 13.8405 21.7315 14.1637 21.4128C14.4834 21.0886 14.6427 20.7141 14.6427 20.2738C14.6427 19.8335 14.4834 19.4589 14.1637 19.1348C13.8405 18.816 13.465 18.6566 13.0256 18.6566C12.5853 18.6566 12.2098 18.816 11.8866 19.1348Z" fill="#FFCC00"/>
</svg>
