<svg width="20" height="18" viewBox="0 0 20 18" fill="none" xmlns="http://www.w3.org/2000/svg">
<path fill-rule="evenodd" clip-rule="evenodd" d="M17.2994 3.01836C17.2994 1.38359 15.9014 0 14.1762 0C12.451 0 11.0529 1.29336 11.0529 3.01836C11.0529 4.74309 14.1762 8.94554 14.1762 8.94554C14.1762 8.94554 17.2994 4.65286 17.2994 3.01836ZM18.1857 3.08817C18.1771 3.34423 18.1168 3.63789 18.0194 3.95582L19.1814 4.63523V16.7441L15.6163 14.8038V8.42584C15.299 8.89562 15.0381 9.25954 14.9062 9.44159L14.184 10.4339L13.4514 9.4484C12.9952 8.83523 11.0351 6.128 10.379 4.13447L4.90788 1.41501L0 4.20411V18L4.90788 14.9833L10.4115 17.6779L15.2 15.4115L20 18V4.20411L18.1857 3.08817ZM10.1837 16.7621L4.90788 14.1482V2.37168L10.1837 5.03074V16.7621Z" fill="#6D6D6D"/>
</svg>
