<svg width="14" height="16" viewBox="0 0 14 16" fill="none" xmlns="http://www.w3.org/2000/svg">
<path d="M14 14.9694C14 15.4141 13.6388 15.7751 13.1943 15.7751C12.7497 15.7751 12.3887 15.4141 12.3887 14.9694V13.4207C12.3887 12.7865 12.1322 12.2116 11.7195 11.7988C11.3055 11.3873 10.7305 11.1296 10.0976 11.1296H3.90215C3.26951 11.1296 2.69551 11.3873 2.28274 11.8C1.86874 12.214 1.61132 12.7878 1.61132 13.4194V14.1637H9.52017C9.96484 14.1637 10.3258 14.525 10.3258 14.9694C10.3258 15.4141 9.96484 15.7751 9.52017 15.7751H0.805658C0.360988 15.7751 0 15.4141 0 14.9694V13.4194C0 12.3446 0.437554 11.3684 1.14431 10.6616C1.84887 9.95705 2.82606 9.51827 3.90215 9.51827H10.0976C11.1737 9.51827 12.1524 9.95705 12.8567 10.6616C13.5612 11.3706 14 12.3468 14 13.4207V14.9694ZM9.29219 4.12725C9.29219 3.49338 9.03574 2.9184 8.62297 2.50538C8.21021 2.09262 7.63375 1.83641 6.99988 1.83641C6.36477 1.83641 5.78979 2.09262 5.37703 2.50538C4.96524 2.91938 4.70781 3.4946 4.70781 4.12725C4.70781 4.76235 4.96426 5.33758 5.3758 5.74789C5.78979 6.16312 6.36477 6.41956 6.99988 6.41956C7.63498 6.41956 8.21021 6.16312 8.62052 5.75133C9.03451 5.3339 9.29219 4.7599 9.29219 4.12725ZM9.75772 1.37064C10.4647 2.0774 10.9033 3.05361 10.9033 4.12725C10.9033 5.20334 10.4657 6.17956 9.75894 6.88632C9.05218 7.59087 8.07376 8.03063 6.99988 8.03063C5.92747 8.03063 4.95125 7.5921 4.24449 6.88632C3.53528 6.17588 3.0965 5.19991 3.0965 4.12725C3.0965 3.05116 3.53528 2.07274 4.23983 1.36819C4.9488 0.663878 5.92501 0.225098 6.99988 0.225098C8.07376 0.225098 9.05096 0.663878 9.75772 1.37064Z" fill="#808080"/>
</svg>
