<svg width="24" height="22" viewBox="0 0 24 22" fill="none" xmlns="http://www.w3.org/2000/svg">
<path fill-rule="evenodd" clip-rule="evenodd" d="M18.7156 3.78511H20.276V11.9797H18.7156V3.78511ZM16.3746 5.42475H17.935V11.9797H16.3746V5.42475ZM14.0335 7.14002H15.5939V11.9797H14.0335V7.14002ZM15.6218 13.6806H21.8922V2.08425H9.07858V2.72354C8.69861 2.6443 8.30874 2.60288 7.91436 2.60288C7.60552 2.60288 7.29849 2.62809 6.99775 2.67762V1.21536C6.99775 0.886714 7.1175 0.604888 7.35611 0.361779C7.59922 0.123172 7.88105 0.00341797 8.20969 0.00341797H22.7602C23.0898 0.00341797 23.3716 0.123172 23.6138 0.361779C23.8533 0.604888 23.9731 0.885814 23.9731 1.21536V14.5494C23.9731 14.8781 23.8533 15.1599 23.6138 15.4021C23.3716 15.6425 23.0898 15.7614 22.7602 15.7614H16.795C16.6762 14.9321 16.1089 14.1308 15.6218 13.6806ZM0.026825 18.1574C0.026825 17.4271 0.154682 16.8095 0.393289 16.2746C0.634597 15.7353 0.986655 15.2905 1.43326 14.9078C1.83574 14.5629 2.30575 14.282 2.83428 14.0362C3.325 13.8066 3.88145 13.6031 4.48743 13.3996C4.50904 13.3888 4.53155 13.3798 4.55586 13.3726C4.6594 13.3366 4.74944 13.2907 4.82688 13.2349C4.91422 13.1727 4.98985 13.098 5.05378 13.0134C5.1105 12.9386 5.16183 12.8522 5.20775 12.7594C5.22576 12.7216 5.24286 12.6829 5.25907 12.6433C5.097 12.4704 4.94753 12.2804 4.81247 12.0733C4.63239 11.7987 4.47302 11.4908 4.33886 11.1486C4.17859 10.7425 4.05343 10.2878 3.96969 9.7854C3.88956 9.30549 3.84724 8.78506 3.84724 8.2259C3.84724 7.67756 3.95619 7.15172 4.15608 6.67091C4.36227 6.17298 4.6639 5.72458 5.03847 5.35002V5.34911C5.82813 4.55946 6.87169 4.16418 7.91436 4.16418C8.95703 4.16418 10.0006 4.55946 10.7912 5.34911C11.1648 5.72278 11.4665 6.17118 11.6735 6.67091C11.8725 7.15262 11.9824 7.67756 11.9824 8.2259C11.9824 8.78506 11.9392 9.30549 11.859 9.7854C11.7762 10.2878 11.651 10.7425 11.4908 11.1486C11.3557 11.4899 11.1972 11.7987 11.0172 12.0733C10.8812 12.2804 10.7317 12.4704 10.5697 12.6433C10.5859 12.6838 10.603 12.7225 10.6219 12.7603C10.6669 12.854 10.7182 12.9386 10.774 13.0134C10.8398 13.098 10.9154 13.1727 11.0027 13.2349C11.0829 13.2925 11.1774 13.3411 11.2864 13.3771C11.3053 13.3834 11.3224 13.3906 11.3386 13.3987C11.9464 13.6022 12.5028 13.8066 12.9944 14.0362C13.523 14.282 13.993 14.5629 14.3955 14.9078C14.8421 15.2905 15.1941 15.7353 15.4354 16.2746C15.6749 16.8095 15.8028 17.4271 15.8028 18.1574C15.8028 19.7889 13.7139 20.8045 11.0406 21.2259C10.0474 21.3817 8.97774 21.46 7.91436 21.46C6.85189 21.46 5.78221 21.3817 4.78816 21.2259C2.11576 20.8045 0.026825 19.7889 0.026825 18.1574ZM6.44941 6.79876C6.26932 6.98335 6.12436 7.20215 6.02441 7.44255C5.92627 7.68116 5.87135 7.94588 5.87135 8.2259C5.87135 8.67431 5.90196 9.07589 5.95959 9.43335C6.01901 9.79981 6.10725 10.1267 6.2207 10.4139C6.32515 10.6786 6.4485 10.9037 6.58807 11.0901C6.72493 11.272 6.8798 11.4187 7.04727 11.5286C7.05988 11.5367 7.07248 11.5457 7.08419 11.5556C7.13911 11.5925 7.19674 11.6258 7.25617 11.6546C7.3237 11.6871 7.39213 11.7141 7.46146 11.7348C7.59832 11.7771 7.75409 11.7978 7.91436 11.7978C8.07463 11.7978 8.2313 11.7771 8.36817 11.7348C8.4366 11.7141 8.50593 11.6871 8.57256 11.6546C8.63378 11.6249 8.69231 11.5916 8.74724 11.5538L8.75354 11.5502C8.76885 11.5367 8.78595 11.5259 8.80306 11.516C8.96063 11.4088 9.1083 11.2666 9.24066 11.0892C9.38022 10.9037 9.50447 10.6786 9.60892 10.4139C9.72147 10.1267 9.81061 9.79981 9.86914 9.43335C9.92676 9.07589 9.95828 8.67431 9.95828 8.2259C9.95828 7.94588 9.90335 7.68116 9.80431 7.44255C9.70166 7.19494 9.5495 6.97074 9.36041 6.78076C8.96333 6.38458 8.4393 6.18649 7.91436 6.18649C7.38943 6.18649 6.86539 6.38458 6.46921 6.78076L6.44941 6.79876ZM6.99505 13.6995C6.97344 13.7418 6.95093 13.7841 6.92842 13.8264C6.84828 13.9696 6.75824 14.1082 6.6592 14.2388C6.47462 14.4801 6.25582 14.698 5.9974 14.8826C5.75609 15.0555 5.48327 15.1968 5.17533 15.2986C5.15823 15.304 5.14112 15.3085 5.12401 15.3112C4.61888 15.4805 4.15698 15.6497 3.7527 15.8334C3.35292 16.0162 3.01256 16.2134 2.74604 16.4412C2.52635 16.6303 2.35347 16.8518 2.23642 17.1237C2.11576 17.4037 2.05093 17.7423 2.05093 18.1574C2.05093 18.7138 3.51949 19.1073 5.39773 19.3108C6.18559 19.3963 7.04727 19.4386 7.91436 19.4386C8.78235 19.4386 9.64404 19.3963 10.431 19.3108C12.3101 19.1073 13.7778 18.7138 13.7778 18.1574C13.7778 17.7423 13.7139 17.4037 13.5932 17.1237C13.4753 16.8518 13.3033 16.6303 13.0836 16.4412C12.8162 16.2134 12.4758 16.0162 12.0769 15.8334C11.669 15.6479 11.2044 15.4787 10.6948 15.3085L10.6543 15.2968L10.6534 15.2986C10.3455 15.1968 10.0726 15.0555 9.83132 14.8826C9.57291 14.698 9.35411 14.4801 9.16953 14.2388C9.07138 14.1091 8.98134 13.9705 8.9012 13.8264L8.83367 13.6995C8.53024 13.7805 8.2214 13.821 7.91436 13.821C7.60822 13.821 7.29939 13.7805 6.99505 13.6995Z" fill="#FFCC00"/>
</svg>
