<svg width="26" height="26" viewBox="0 0 26 26" fill="none" xmlns="http://www.w3.org/2000/svg">
<path fill-rule="evenodd" clip-rule="evenodd" d="M18.7498 13.0004C18.7498 16.176 16.176 18.7506 12.9996 18.7506C9.82481 18.7506 7.24937 16.176 7.24937 13.0004C7.24937 9.82481 9.82481 7.25022 12.9996 7.25022C16.176 7.25022 18.7498 9.82481 18.7498 13.0004ZM25.5003 12.0001H22.9493C22.48 7.27639 18.7236 3.52002 13.9999 3.05068V0.500568C13.9999 0.225382 13.7736 0 13.5001 0H12.4999C12.2247 0 12.0001 0.225382 12.0001 0.500568V3.05068C7.27554 3.52002 3.52002 7.27639 3.05068 12.0001H0.500568C0.225382 12.0001 0 12.2247 0 12.5007V13.5001C0 13.7753 0.225382 13.9999 0.500568 13.9999H3.05068C3.52002 18.7245 7.27554 22.48 12.0001 22.9502V25.5003C12.0001 25.7746 12.2247 26 12.4999 26H13.5001C13.7736 26 13.9999 25.7746 13.9999 25.5003V22.9502C18.7236 22.48 22.48 18.7245 22.9493 13.9999H25.5003C25.7746 13.9999 26 13.7753 26 13.5001V12.5007C26 12.2247 25.7746 12.0001 25.5003 12.0001ZM12.9996 20.9994C8.58901 20.9994 5.00062 17.411 5.00062 13.0004C5.00062 8.58901 8.58901 5.00062 12.9996 5.00062C17.411 5.00062 21.0002 8.58901 21.0002 13.0004C21.0002 17.411 17.411 20.9994 12.9996 20.9994Z" fill="#FFCC00"/>
</svg>
