<svg width="24" height="25" viewBox="0 0 24 25" fill="none" xmlns="http://www.w3.org/2000/svg">
<path fill-rule="evenodd" clip-rule="evenodd" d="M18.4005 0.132324H1.96632C1.19197 0.132324 0.55719 0.765308 0.55719 1.53966V20.793C0.55719 21.5673 1.19197 22.2012 1.96632 22.2012H10.8686L8.01163 19.0696C7.32552 18.3169 7.35344 17.1644 8.07286 16.4449L9.76292 14.7567C10.1168 14.4019 10.5859 14.2083 11.0856 14.2083C11.5889 14.2083 12.0797 14.4163 12.429 14.7774L14.7566 17.1806L19.7421 11.7187C19.7619 11.6953 19.7871 11.68 19.8096 11.6584V1.53966C19.8096 0.765308 19.1748 0.132324 18.4005 0.132324ZM5.16546 9.96293C5.16546 10.2213 4.95296 10.4329 4.69545 10.4329H3.74102C3.4835 10.4329 3.27191 10.2213 3.27191 9.96293V9.49382C3.27191 9.2354 3.4835 9.02381 3.74102 9.02381H4.69545C4.95296 9.02381 5.16546 9.2354 5.16546 9.49382V9.96293ZM5.16546 5.72203C5.16546 5.98045 4.95296 6.19204 4.69545 6.19204H3.74102C3.4835 6.19204 3.27191 5.98045 3.27191 5.72203V5.25292C3.27191 4.9945 3.4835 4.78291 3.74102 4.78291H4.69545C4.95296 4.78291 5.16546 4.9945 5.16546 5.25292V5.72203ZM16.4493 9.96293C16.4493 10.2213 16.2377 10.4329 15.9793 10.4329H7.0581C6.79969 10.4329 6.58809 10.2213 6.58809 9.96293V9.49382C6.58809 9.2354 6.79969 9.02381 7.0581 9.02381H15.9793C16.2377 9.02381 16.4493 9.2354 16.4493 9.49382V9.96293ZM16.4493 5.72203C16.4493 5.98045 16.2377 6.19204 15.9793 6.19204H7.0581C6.79969 6.19204 6.58809 5.98045 6.58809 5.72203V5.25292C6.58809 4.9945 6.79969 4.78291 7.0581 4.78291H15.9793C16.2377 4.78291 16.4493 4.9945 16.4493 5.25292V5.72203ZM15.1572 24.0164C14.9582 24.2361 14.6314 24.237 14.4315 24.0173L9.10112 18.1728C8.90033 17.9531 8.90934 17.602 9.11913 17.3922L10.7092 15.802C10.919 15.5923 11.2603 15.5941 11.4665 15.8075L14.4108 18.8499C14.617 19.0633 14.9501 19.0579 15.1509 18.8382L20.7352 12.72C20.9351 12.5012 21.2791 12.4841 21.4997 12.6821L23.2645 14.2687C23.486 14.4668 23.5022 14.8089 23.3032 15.0286L15.1572 24.0164Z" fill="#FFCC00"/>
</svg>
