<svg width="42" height="42" viewBox="0 0 42 42" fill="none" xmlns="http://www.w3.org/2000/svg">
<mask id="mask0" mask-type="alpha" maskUnits="userSpaceOnUse" x="0" y="0" width="42" height="42">
<circle cx="21" cy="21" r="21" fill="#C4C4C4"/>
</mask>
<g mask="url(#mask0)">
<circle cx="21" cy="21" r="21" fill="#333333"/>
<path fill-rule="evenodd" clip-rule="evenodd" d="M18.324 43.2308C18.7725 41.0303 20.2983 34.158 20.7469 31.9573C18.5604 30.6248 19.2448 28.2778 21.2418 28.2098C23.2196 28.143 24.1877 30.5436 21.8679 31.9573C22.3164 34.158 23.5899 41.0303 24.0385 43.2308H18.324ZM5.40142 38.5024C4.41607 38.4924 4.01403 37.9856 4 37.148C4.14941 35.6248 4.29875 34.1015 4.44845 32.578C4.84318 29.7581 7.77175 27.706 14.3704 26.7666C16.6709 26.4285 17.0435 38.2899 17.8462 43.2308C13.7726 43.1928 9.47471 38.54 5.40142 38.5024ZM37.2137 38.5024C38.1991 38.4924 38.6011 37.9856 38.6154 37.148C38.4657 35.6248 38.3163 34.1015 38.1669 32.578C37.7719 29.7581 34.8433 27.706 28.2446 26.7666C25.9444 26.4285 25.5718 38.2899 24.7692 43.2308C28.8428 43.1928 33.1404 38.54 37.2137 38.5024ZM21.3074 25.7893C25.2182 25.7893 27.1924 22.9738 28.7681 18.5474C29.6704 17.9141 30.0595 17.0224 29.8902 15.8502C27.2646 16.5895 23.8851 16.5745 21.3112 16.5624V16.565H21.3036V16.5624C18.73 16.5745 15.3502 16.5895 12.7245 15.8502C12.5552 17.0224 12.9445 17.9141 13.8468 18.5474C15.4225 22.9738 17.3967 25.7893 21.3074 25.7893ZM15.5844 12.9921C19.2434 13.3223 23.3617 13.3511 27.0286 12.9921L27.0175 13.9255C22.3196 14.2084 20.3027 14.1833 15.599 13.9255L15.5844 12.9921ZM30.0897 14.4885C30.8686 13.8629 31.2975 13.2039 29.5645 13.2911C29.5691 13.0318 29.5665 12.7805 29.5572 12.5365C29.1095 12.475 28.5443 12.3876 27.9791 12.3002C27.1826 12.1769 26.3857 12.0536 25.9749 12.0082L25.7903 11.9876L25.6714 11.8473C25.2471 11.3467 24.8342 10.8411 24.4213 10.3364C24.0269 9.85404 23.6325 9.3714 23.1802 8.83726L23.0559 8.6907L23.0691 8.50236C23.1094 7.92025 23.1281 7.31519 23.1465 6.71042C23.165 6.11183 23.1831 5.51295 23.2173 4.98411C23.1539 4.15744 22.2358 4 21.3074 4C20.3791 4 19.4616 4.16892 19.3984 4.99617C19.4317 5.52178 19.4501 6.11625 19.4682 6.71042C19.4867 7.31519 19.5054 7.92025 19.5461 8.50236L19.559 8.6907L19.4349 8.83726C18.9832 9.37052 18.5896 9.85197 18.196 10.3334C17.7826 10.8393 17.3686 11.3455 16.9438 11.8473L16.8244 11.9876L16.64 12.0082C16.164 12.0606 15.4353 12.1536 14.7076 12.2463C14.0991 12.324 13.4897 12.4014 13.0611 12.4529C13.0491 12.7228 13.045 13.0021 13.0506 13.2911C11.3173 13.2039 11.7463 13.8629 12.5255 14.4885C14.9971 15.3464 18.611 15.3299 21.3013 15.3175L21.3036 15.3149H21.3112L21.3139 15.3175C24.0042 15.3299 27.6181 15.3464 30.0897 14.4885ZM29.4812 11.5806C29.0607 8.20865 27.1096 6.43408 24.1296 5.30194C24.1036 5.77222 24.0889 6.25427 24.0743 6.73631C24.057 7.30224 24.0394 7.86846 24.009 8.37552C24.3909 8.82961 24.7646 9.28664 25.138 9.74339C25.4971 10.1825 25.8564 10.6218 26.2593 11.1004C26.7356 11.1598 27.4269 11.2669 28.1175 11.3738C28.6008 11.4485 29.0841 11.5233 29.4812 11.5806ZM18.4858 5.31342C15.5297 6.43526 13.5856 8.18335 13.1441 11.5015C13.5684 11.4503 14.0798 11.3849 14.5912 11.3199C15.2588 11.2348 15.9262 11.1498 16.3563 11.0995C16.7598 10.6204 17.1198 10.1804 17.4791 9.74044C17.8519 9.28458 18.225 8.82843 18.606 8.37552C18.5753 7.86846 18.5577 7.30224 18.5407 6.73631C18.5261 6.25839 18.5112 5.78017 18.4858 5.31342Z" fill="#666666"/>
</g>
</svg>
