<svg width="12" height="11" viewBox="0 0 12 11" fill="none" xmlns="http://www.w3.org/2000/svg">
<path d="M6.68747 7.07143C6.68747 7.43205 6.38036 7.72503 6.00219 7.72503C5.62417 7.72503 5.31705 7.43205 5.31705 7.07143V5.04352C5.31705 4.68277 5.62417 4.38979 6.00219 4.38979C6.38036 4.38979 6.68747 4.68277 6.68747 5.04352V7.07143ZM6.60652 0.348751L11.9225 10.0448C12.0966 10.3626 11.9675 10.7567 11.6344 10.9226C11.5333 10.9732 11.4253 10.9972 11.3183 10.9961L0.685275 11C0.307113 11 0 10.707 0 10.3463C0 10.2146 0.0409484 10.0915 0.111998 9.98836L5.398 0.348751C5.5721 0.0309404 5.98525 -0.0920706 6.31839 0.0738843C6.44639 0.137912 6.54442 0.235183 6.60652 0.348751ZM10.1898 9.69254L6.00219 2.05422L1.81366 9.69254H10.1898ZM6.55351 8.6571C6.55351 8.94827 6.30632 9.18484 6.00219 9.18484C5.69806 9.18484 5.45007 8.94827 5.45007 8.6571C5.45007 8.36697 5.69806 8.13039 6.00219 8.13039C6.30632 8.13039 6.55351 8.36697 6.55351 8.6571Z" fill="#FFCC00"/>
</svg>
