<svg width="14" height="14" viewBox="0 0 14 14" fill="none" xmlns="http://www.w3.org/2000/svg">
<path fill-rule="evenodd" clip-rule="evenodd" d="M7.70754 0.443919L13.9096 12.7841C14.1126 13.1886 13.9621 13.6902 13.5734 13.9015C13.4555 13.9659 13.3295 13.9962 13.2047 13.9951L0.799452 14C0.358357 14 0 13.6271 0 13.168C0 13.0004 0.0478522 12.8436 0.130725 12.7125L6.29764 0.443919C6.50081 0.0394054 6.98281 -0.117225 7.37137 0.0940732C7.52081 0.175449 7.63523 0.29939 7.70754 0.443919ZM7.80204 9C7.80204 9.45904 7.44382 9.83198 7.00259 9.83198C6.56149 9.83198 6.20314 9.45904 6.20314 9V6.5C6.20314 6.04082 6.56149 5.66802 7.00259 5.66802C7.44382 5.66802 7.80204 6.04082 7.80204 6.5V9ZM7.64565 11.0182C7.64565 11.3886 7.35747 11.6898 7.00259 11.6898C6.64784 11.6898 6.35846 11.3886 6.35846 11.0182C6.35846 10.6489 6.64784 10.3477 7.00259 10.3477C7.35747 10.3477 7.64565 10.6489 7.64565 11.0182Z" fill="#E6E6E6"/>
</svg>
