<svg width="14" height="14" viewBox="0 0 14 14" fill="none" xmlns="http://www.w3.org/2000/svg">
<path d="M6.61025 8.18382L6.60656 8.18148L6.58964 8.17042H6.5883L6.57256 8.16071L6.57021 8.15953L6.55564 8.14982L6.55195 8.14864L6.53855 8.13893L6.53486 8.13658L6.52163 8.12804L6.51677 8.12435L6.50588 8.11581L6.50102 8.11229L6.48997 8.10375L6.48394 8.10006L6.47422 8.09152L6.46819 8.08666L6.45964 8.07828L6.45244 8.07342L6.44507 8.06605L6.43653 8.05885L6.39414 8.0163L6.38794 8.00893L6.38074 8.00055L6.37588 7.99452L6.36734 7.98598L6.36248 7.97994L6.3541 7.97023L6.35042 7.96403L6.34187 7.95314L6.33819 7.94828L6.32981 7.93739L6.32613 7.93253L6.31875 7.92165L6.31524 7.91545L6.30418 7.89853L6.29698 7.88764L6.29329 7.88144L6.28609 7.87055L6.28357 7.86452L6.27637 7.85246L6.27268 7.8476L6.26665 7.83537L6.26414 7.82934L6.25811 7.81711L6.25442 7.81108L6.24957 7.79902L6.24588 7.79282L6.24102 7.78076L6.23868 7.77472L6.23382 7.7625L6.23013 7.75646L6.22661 7.74424L6.22293 7.73703L6.22042 7.72614L6.2169 7.7176L6.21321 7.70671L6.2107 7.69934L6.20835 7.68728L6.20467 7.67873L6.20232 7.66902L6.19981 7.6593L6.19747 7.64958L6.19378 7.63987L6.19261 7.63015L6.19009 7.61926L6.18892 7.61072L6.18641 7.59983L6.18524 7.59128L6.18289 7.57922L6.1792 7.55124L6.17803 7.53784V7.53181L6.17552 7.51606V7.51238L6.17435 7.49546V7.49177L6.17317 7.45291V7.45173L6.16832 3.98629C6.16832 3.52978 6.53972 3.1582 6.9964 3.1582C7.45291 3.1582 7.82448 3.52978 7.82448 3.98629L7.82817 6.97328L9.86796 8.14747C10.2638 8.37447 10.3999 8.88207 10.1727 9.27794C9.9457 9.67363 9.43809 9.80967 9.0424 9.58267L6.61025 8.18382ZM12.3365 6.99874C12.3365 5.52585 11.7379 4.19033 10.7738 3.22622C9.80967 2.26211 8.47398 1.66354 7.00126 1.66354C5.52585 1.66354 4.18782 2.26093 3.22371 3.22371C2.26211 4.19033 1.66354 5.52585 1.66354 6.99874C1.66354 8.47281 2.26211 9.80967 3.22622 10.7738L3.26994 10.82C4.23037 11.7562 5.54897 12.3365 7.00126 12.3365C8.47649 12.3365 9.81218 11.7379 10.7763 10.775C11.7391 9.80967 12.3365 8.47281 12.3365 6.99874ZM11.9491 2.05086C13.2143 3.31601 14 5.06817 14 6.99874C14 8.93066 13.2156 10.684 11.9503 11.9491C10.6803 13.2143 8.93066 14 7.00126 14C5.09364 14 3.36091 13.2326 2.0981 11.9929L2.05086 11.9491C0.78553 10.684 0 8.93066 0 6.99874C0 5.06817 0.78553 3.31601 2.05086 2.05086C3.32087 0.78553 5.07186 0 7.00126 0C8.93183 0 10.684 0.78553 11.9491 2.05086Z" fill="#FFCC00"/>
</svg>
